<?xml version="1.0" encoding="UTF-8"?> <!-- Generator: Adobe Illustrator 22.0.1, SVG Export Plug-In . SVG Version: 6.00 Build 0) --> <svg xmlns="http://www.w3.org/2000/svg" xmlns:xlink="http://www.w3.org/1999/xlink" version="1.1" id="Layer_1" x="0px" y="0px" viewBox="0 0 1261.4 190.8" style="enable-background:new 0 0 1253.4 190.8;" xml:space="preserve"> <style type="text/css"> .st0{fill:#464747;} .st1{display:none;} .st2{display:inline;} .st3{font-family:'BellMT';} .st4{font-size:12px;} .st5{letter-spacing:1;} </style> <g> <g> <g> <path class="st0" d="M4.4,6.9h47.5v12H17v22h30.5v12H17v32.1H4.4V6.9z"></path> <path class="st0" d="M56.1,85.1L90.8,3.7h0.8l34.6,81.4h-14.3L87.4,23.2l9-5.9L68.4,85.1H56.1z M78,56.1h26.6l4.3,10.5H74.1 L78,56.1z"></path> <path class="st0" d="M135.7,85.1v-81h0.1l42.1,59.6l-5.4-1.2l41.9-58.4h0.2v81h-12.5V32.4l0.8,6.3l-28.3,40.1h-0.2l-28.8-40.1 l2.1-5.8v52.2H135.7z"></path> <path class="st0" d="M232.4,6.9h12.6v78.2h-12.6V6.9z"></path> <path class="st0" d="M262.7,6.9h12.6v66.2h38.6v12h-51.1V6.9z"></path> <path class="st0" d="M347.2,59.6L318.3,6.9h15.4l22,42.1l-3.9,0.2l21.8-42.3H389l-29.3,52.7v25.5h-12.5V59.6z"></path> <path class="st0" d="M429,6.9h47.5v12h-34.9v22h30.5v12h-30.5v32.1H429V6.9z"></path> <path class="st0" d="M489,6.9h12.6v78.2H489V6.9z"></path> <path class="st0" d="M541.4,6.9c4.3,0,8.2,0.6,11.8,1.7c3.5,1.1,6.6,2.8,9.1,4.9c2.5,2.1,4.5,4.7,5.9,7.8c1.4,3.1,2,6.7,2,10.7 c0,3.1-0.5,6.2-1.4,9.2c-0.9,3.1-2.5,5.9-4.6,8.4c-2.1,2.5-4.9,4.5-8.3,6c-3.4,1.5-7.7,2.3-12.7,2.3h-11.4v27.2h-12.6V6.9H541.4z M543,45.8c2.7,0,5-0.4,6.9-1.3c1.9-0.9,3.3-2,4.4-3.3c1.1-1.4,1.8-2.8,2.3-4.4c0.5-1.5,0.7-3,0.7-4.4c0-1.3-0.2-2.7-0.6-4.2 c-0.4-1.5-1.2-3-2.2-4.5c-1-1.4-2.5-2.6-4.2-3.5c-1.8-0.9-4-1.3-6.8-1.3h-11.6v26.9H543z M556.5,53.4l20,31.7h-14.6l-20.3-31.4 L556.5,53.4z"></path> <path class="st0" d="M628.5,22.9c-2.8-1.5-5.8-2.8-8.9-3.8c-3.2-1-6.2-1.6-9-1.6c-3.9,0-6.9,0.9-9.1,2.6 c-2.2,1.7-3.3,4.1-3.3,7.1c0,2.1,0.8,4,2.3,5.6c1.5,1.6,3.5,3,6,4.2c2.4,1.2,5,2.3,7.7,3.4c2.4,0.9,4.7,1.9,7,3.1 c2.3,1.2,4.4,2.6,6.3,4.3c1.9,1.7,3.4,3.8,4.5,6.4c1.1,2.6,1.7,5.7,1.7,9.4c0,4.2-1,7.9-3.1,11.2c-2,3.3-5,6-9,8.1 c-3.9,2-8.6,3.1-14.1,3.1c-3.3,0-6.5-0.4-9.6-1.1c-3.1-0.7-6.1-1.7-8.9-2.9c-2.8-1.2-5.4-2.7-7.7-4.4l5.6-9.7 c1.7,1.3,3.7,2.5,5.9,3.5c2.2,1.1,4.5,1.9,6.8,2.6c2.3,0.6,4.6,1,6.7,1c2.1,0,4.4-0.4,6.6-1.1c2.3-0.8,4.1-2,5.5-3.6 c1.4-1.6,2.1-3.9,2.1-6.7c0-2.2-0.6-4.1-1.9-5.6c-1.3-1.5-3-2.9-5-4.1c-2-1.2-4.3-2.2-6.7-3.2c-2.4-0.9-4.8-2-7.4-3.1 c-2.6-1.1-5-2.6-7.1-4.2c-2.2-1.7-3.9-3.7-5.2-6.2c-1.3-2.4-1.9-5.4-1.9-8.9c0-4.3,1-8,2.9-11.2c1.9-3.2,4.7-5.7,8.3-7.6 c3.6-1.9,7.7-2.9,12.3-3c5.5,0,10.2,0.7,14.1,2c3.9,1.3,7.4,3,10.5,4.9L628.5,22.9z"></path> <path class="st0" d="M640.6,6.9h52.3v12h-20.2v66.2h-12.5V18.9h-19.7V6.9z"></path> <path class="st0" d="M735.7,6.9h12.6v66.2h38.6v12h-51.1V6.9z"></path> <path class="st0" d="M799.6,6.9h12.6v78.2h-12.6V6.9z"></path> <path class="st0" d="M829.9,6.9h47.5v12h-34.9v22H873v12h-30.5v32.1h-12.6V6.9z"></path> <path class="st0" d="M889.8,6.9h51.9v12h-39.3v20.8h35v12h-35v21.3h40.8v12h-53.4V6.9z"></path> <path class="st0" d="M998.6,57c0,3.1,0.8,5.9,2.4,8.4c1.6,2.5,3.7,4.6,6.4,6.2c2.6,1.6,5.6,2.4,8.9,2.4c3.4,0,6.5-0.8,9.2-2.4 c2.7-1.6,4.9-3.6,6.5-6.2c1.6-2.5,2.4-5.4,2.4-8.4V6.9h12.2v50.3c0,5.7-1.4,10.8-4.1,15.1c-2.7,4.3-6.4,7.7-11,10.1 c-4.6,2.4-9.7,3.6-15.3,3.6c-5.6,0-10.7-1.2-15.3-3.6c-4.6-2.4-8.2-5.8-11-10.1c-2.7-4.3-4.1-9.4-4.1-15.1V6.9h12.6V57z"></path> <path class="st0" d="M1062.4,71.8c1.6-1.5,3.4-2.3,5.3-2.3c1.8,0,3.5,0.8,5.1,2.3c1.6,1.5,2.4,3.4,2.4,5.6c0,2.4-0.8,4.2-2.4,5.6 s-3.3,2.1-5.1,2.1c-1.9,0-3.7-0.7-5.3-2.1s-2.4-3.3-2.4-5.6C1060,75.1,1060.8,73.3,1062.4,71.8z"></path> <path class="st0" d="M1130.8,22.9c-2.8-1.5-5.8-2.8-8.9-3.8c-3.2-1-6.2-1.6-9-1.6c-3.9,0-6.9,0.9-9.1,2.6s-3.3,4.1-3.3,7.1 c0,2.1,0.8,4,2.3,5.6c1.5,1.6,3.5,3,6,4.2c2.4,1.2,5,2.3,7.7,3.4c2.4,0.9,4.7,1.9,7,3.1c2.3,1.2,4.4,2.6,6.3,4.3 c1.9,1.7,3.4,3.8,4.5,6.4c1.1,2.6,1.7,5.7,1.7,9.4c0,4.2-1,7.9-3.1,11.2c-2,3.3-5,6-9,8.1c-3.9,2-8.6,3.1-14.1,3.1 c-3.3,0-6.5-0.4-9.6-1.1s-6.1-1.7-8.9-2.9c-2.8-1.2-5.4-2.7-7.7-4.4l5.6-9.7c1.7,1.3,3.7,2.5,5.9,3.5c2.2,1.1,4.5,1.9,6.8,2.6 c2.3,0.6,4.6,1,6.7,1s4.4-0.4,6.6-1.1s4.1-2,5.5-3.6c1.4-1.6,2.1-3.9,2.1-6.7c0-2.2-0.6-4.1-1.9-5.6c-1.3-1.5-3-2.9-5-4.1 s-4.3-2.2-6.7-3.2c-2.4-0.9-4.8-2-7.4-3.1c-2.6-1.1-5-2.6-7.1-4.2c-2.2-1.7-3.9-3.7-5.2-6.2c-1.3-2.4-1.9-5.4-1.9-8.9 c0-4.3,1-8,2.9-11.2c1.9-3.2,4.7-5.7,8.3-7.6c3.6-1.9,7.7-2.9,12.3-3c5.5,0,10.2,0.7,14.1,2c3.9,1.3,7.4,3,10.5,4.9L1130.8,22.9z "></path> <path class="st0" d="M1147.7,71.8c1.6-1.5,3.4-2.3,5.3-2.3c1.8,0,3.5,0.8,5.1,2.3c1.6,1.5,2.4,3.4,2.4,5.6c0,2.4-0.8,4.2-2.4,5.6 s-3.3,2.1-5.1,2.1c-1.9,0-3.7-0.7-5.3-2.1s-2.4-3.3-2.4-5.6C1145.3,75.1,1146.1,73.3,1147.7,71.8z"></path> <path class="st0" d="M1166.7,85.1l34.7-81.4h0.8l34.6,81.4h-14.3L1198,23.2l9-5.9l-27.9,67.8H1166.7z M1188.7,56.1h26.6l4.3,10.5 h-34.8L1188.7,56.1z"></path> <path class="st0" d="M1245.5,71.8c1.6-1.5,3.4-2.3,5.3-2.3c1.8,0,3.5,0.8,5.1,2.3c1.6,1.5,2.4,3.4,2.4,5.6c0,2.4-0.8,4.2-2.4,5.6 s-3.3,2.1-5.1,2.1c-1.9,0-3.7-0.7-5.3-2.1s-2.4-3.3-2.4-5.6C1243.1,75.1,1243.9,73.3,1245.5,71.8z"></path> </g> </g> <g> <path class="st0" d="M294,138.6h1.4c1.8,4,4.5,10.3,7.8,18.9c1.6,3.9,2.6,6.3,3.2,7.2s1.5,1.3,2.8,1.5c0.4,0.1,0.6,0.2,0.6,0.5 c0,0.4-0.3,0.7-0.8,0.7c-0.3,0-1.1,0-2.3-0.1c-1.5-0.1-2.7-0.2-3.7-0.2c-1,0-2.2,0.1-3.8,0.2c-1.2,0.1-1.9,0.1-2.3,0.1 c-0.6,0-1-0.2-1-0.6c0-0.3,0.2-0.5,0.7-0.5c1.7-0.2,2.6-0.8,2.6-2c0-0.6-0.3-1.6-0.8-3.1c-0.5-1.5-1-2.9-1.6-4.1 c-0.9,0-1.6,0-2.1,0c-2.8,0-5,0-6.6,0c-1.2,3.3-1.8,5.5-1.8,6.6c0,0.8,0.3,1.4,0.9,1.8s1.3,0.7,2,0.7c0.5,0.1,0.8,0.3,0.8,0.7 c0,0.4-0.3,0.6-0.9,0.6c-0.2,0-0.8,0-1.8-0.1c-1.2-0.1-2.1-0.1-2.7-0.1c-1.1,0-2.2,0.1-3.1,0.2c-0.3,0-0.5,0.1-0.6,0.1 c-0.5,0-0.8-0.2-0.8-0.6c0-0.3,0.2-0.5,0.5-0.6c0.8-0.2,1.5-0.5,2-0.9c0.5-0.3,1-1,1.5-2c0.6-1,1.2-2.6,2-4.8 C288,153.6,290.6,146.9,294,138.6z M292.5,145.9l-3.6,9.4l7.4-0.1c-0.4-1.1-1-2.6-1.8-4.5C293.6,148.6,292.9,147,292.5,145.9z"></path> <path class="st0" d="M322.9,139.3c6.7,7.6,12.3,13.7,16.8,18.3c0-1,0-1.6,0-1.8l0-8.3c0-2-0.1-3.4-0.3-4.2c-0.2-0.8-0.7-1.5-1.4-2 c-0.7-0.5-1.6-0.8-2.5-0.9c-0.5-0.1-0.8-0.3-0.8-0.7c0-0.4,0.2-0.6,0.7-0.6c0.3,0,0.6,0,1,0.1c0.8,0.1,2,0.1,3.5,0.1 c1.9,0,3.4-0.1,4.4-0.2c0.4,0,0.8-0.1,1.1-0.1c0.5,0,0.8,0.2,0.8,0.6c0,0.4-0.4,0.6-1.1,0.7c-0.9,0.1-1.7,0.5-2.5,1.1 c-0.8,0.7-1.1,2-1.1,3.9l0.1,11.9l-0.1,8.9c0,0.8-0.2,1.2-0.7,1.2c-0.1,0-0.3,0-0.4-0.1s-1.1-1.1-2.9-2.9 c-1.8-1.9-4.4-4.7-7.8-8.6c-3.5-3.9-5.9-6.7-7.3-8.4c0,0.4,0,3.9,0,10.6c0,2.1,0.1,3.7,0.3,4.8s0.7,2,1.6,2.5s1.7,0.8,2.5,0.8 c0.5,0,0.7,0.2,0.7,0.5c0,0.4-0.3,0.6-0.8,0.6c-0.3,0-0.7,0-1.2-0.1c-0.8-0.1-1.9-0.2-3.2-0.2c-2.1,0-3.6,0.1-4.5,0.2 c-0.6,0.1-1,0.1-1.3,0.1c-0.5,0-0.8-0.2-0.8-0.7c0-0.3,0.4-0.5,1.3-0.6c1.6-0.1,2.6-0.7,3-1.6c0.4-1,0.6-2.3,0.6-3.9 c0-7.2,0-11.6-0.1-13.2c-0.1-1.6-0.6-3.1-1.5-4.4s-2.1-2.1-3.4-2.3c-0.5-0.1-0.8-0.3-0.8-0.7c0-0.5,0.3-0.7,0.9-0.7 c0.1,0,0.3,0,0.6,0c0.3,0,0.9,0,1.7,0C319.7,139.3,321.4,139.3,322.9,139.3z"></path> <path class="st0" d="M368.7,139.3c0.5,0,1.5,0,3,0.1c1.2,0.1,2.1,0.1,2.8,0.1l6.4-0.2c0.5,0,0.8,0.2,0.8,0.6 c0,0.3-0.2,0.5-0.7,0.6c-1.1,0.1-1.8,0.3-2.2,0.6c-0.4,0.3-0.7,1-0.9,2.1c-0.2,1.1-0.3,3.6-0.3,7.4c0,4.4,0.1,7.8,0.2,10.2 c0.1,2.4,0.4,3.9,0.8,4.5c0.4,0.6,1.1,0.8,2.1,0.8c0.7,0,1,0.2,1,0.5c0,0.5-0.4,0.7-1.1,0.7c-0.2,0-0.5,0-0.9,0 c-2.6-0.2-4.4-0.3-5.4-0.3c-2.1,0-3.7,0.1-4.7,0.2c-0.5,0.1-0.9,0.1-1.1,0.1c-0.5,0-0.8-0.2-0.8-0.6c0-0.3,0.2-0.5,0.7-0.6 c1.2-0.2,2-0.5,2.4-1s0.7-1.7,0.7-3.7c0.1-1.9,0.1-5,0.1-9.1c0-4.3-0.1-7.2-0.2-8.7c-0.2-1.5-0.4-2.4-0.8-2.7 c-0.4-0.3-1-0.5-2-0.6c-0.5,0-0.8-0.3-0.8-0.7C367.9,139.5,368.2,139.3,368.7,139.3z"></path> <path class="st0" d="M395.8,139.3c6.7,7.6,12.3,13.7,16.8,18.3c0-1,0-1.6,0-1.8l0-8.3c0-2-0.1-3.4-0.3-4.2c-0.2-0.8-0.7-1.5-1.4-2 c-0.7-0.5-1.6-0.8-2.5-0.9c-0.5-0.1-0.8-0.3-0.8-0.7c0-0.4,0.2-0.6,0.7-0.6c0.3,0,0.6,0,1,0.1c0.8,0.1,2,0.1,3.5,0.1 c1.9,0,3.4-0.1,4.4-0.2c0.4,0,0.8-0.1,1.1-0.1c0.5,0,0.8,0.2,0.8,0.6c0,0.4-0.4,0.6-1.1,0.7c-0.9,0.1-1.7,0.5-2.5,1.1 c-0.8,0.7-1.1,2-1.1,3.9l0.1,11.9l-0.1,8.9c0,0.8-0.2,1.2-0.7,1.2c-0.1,0-0.3,0-0.4-0.1s-1.1-1.1-2.9-2.9 c-1.8-1.9-4.4-4.7-7.8-8.6c-3.5-3.9-5.9-6.7-7.3-8.4c0,0.4,0,3.9,0,10.6c0,2.1,0.1,3.7,0.3,4.8s0.7,2,1.6,2.5s1.7,0.8,2.5,0.8 c0.5,0,0.7,0.2,0.7,0.5c0,0.4-0.3,0.6-0.8,0.6c-0.3,0-0.7,0-1.2-0.1c-0.8-0.1-1.9-0.2-3.2-0.2c-2.1,0-3.6,0.1-4.5,0.2 c-0.6,0.1-1,0.1-1.3,0.1c-0.5,0-0.8-0.2-0.8-0.7c0-0.3,0.4-0.5,1.3-0.6c1.6-0.1,2.6-0.7,3-1.6c0.4-1,0.6-2.3,0.6-3.9 c0-7.2,0-11.6-0.1-13.2c-0.1-1.6-0.6-3.1-1.5-4.4s-2.1-2.1-3.4-2.3c-0.5-0.1-0.8-0.3-0.8-0.7c0-0.5,0.3-0.7,0.9-0.7 c0.1,0,0.3,0,0.6,0c0.3,0,0.9,0,1.7,0C392.5,139.3,394.2,139.3,395.8,139.3z"></path> <path class="st0" d="M425.5,139.2c7.3,0.2,12.6,0.3,16.1,0.3c2.6,0,5.6-0.1,8.7-0.2c1.1-0.1,2.1-0.1,2.8-0.1c0.3,0,0.7,0,1.4,0 c0.1,0.6,0.2,1.8,0.4,3.5l0.3,3.3c0,0.5-0.2,0.8-0.7,0.8c-0.3,0-0.7-0.3-1-1c-0.5-1.1-1.2-2.1-2-2.9c-0.8-0.8-1.8-1.3-2.9-1.6 s-2.9-0.4-5.4-0.4c-0.2,2.1-0.3,4.8-0.3,8c0,3.3,0.1,6.5,0.2,9.5c0.1,3.1,0.3,4.9,0.5,5.5c0.2,0.6,0.5,1.1,0.9,1.4 c0.4,0.3,1.5,0.5,3.1,0.6c0.5,0,0.8,0.2,0.8,0.6c0,0.4-0.2,0.6-0.7,0.6l-0.6,0l-4.3-0.1c-3.4,0-5.4,0-6.2,0l-2.6,0.1 c-0.2,0-0.6,0-1.3,0c-0.3-0.1-0.5-0.2-0.5-0.5c0-0.4,0.3-0.6,0.8-0.6c1.2,0,2.2-0.3,2.8-0.8c0.6-0.5,1-1.3,1.2-2.5 c0.1-1.1,0.2-3.6,0.2-7.3c0-5.9-0.2-10.8-0.5-14.5c-2.3,0-4,0.1-5,0.3c-1,0.2-2,0.7-3,1.6c-1,0.8-1.7,1.9-2.3,3.3 c-0.2,0.5-0.5,0.8-0.8,0.8c-0.5,0-0.7-0.2-0.7-0.6c0-0.1,0.1-1,0.3-2.8C425.1,141.7,425.3,140.3,425.5,139.2z"></path> <path class="st0" d="M484.3,139.6c0.4,2.2,0.9,4.4,1.3,6.5c0,0.4-0.2,0.6-0.6,0.6c-0.2,0-0.5-0.2-0.8-0.6c-1.4-2.1-2.8-3.5-4-4.1 c-1.2-0.7-2.9-1-5.2-1c-1.3,0-2.5,0.1-3.7,0.3c-0.3,2.5-0.4,5.2-0.4,8.1c0,0.5,0,1.3,0,2.5l1.6,0c1,0,1.8-0.1,2.6-0.4 c0.7-0.3,1.3-0.9,1.8-1.7c0.5-0.9,0.8-1.5,0.9-1.7c0.1-0.4,0.3-0.7,0.7-0.7c0.4,0,0.6,0.2,0.6,0.5c0,0.1,0,0.2,0,0.3 c-0.2,0.9-0.3,3.5-0.3,7.8c0,0.6,0.1,1.1,0.2,1.6c0,0.1,0,0.3,0,0.4c0,0.4-0.2,0.6-0.7,0.6c-0.3,0-0.5-0.4-0.7-1.1 c-0.3-1.3-0.9-2.3-1.9-3c-1-0.7-2.6-1-4.7-1.1c-0.1,2.4-0.1,3.9-0.1,4.6c0,3.2,0,5.1,0.1,5.7c0.1,0.6,0.5,1.1,1.1,1.5 c0.6,0.4,1.7,0.6,3.1,0.6c5.3,0,8.8-1.7,10.5-5.1c0.2-0.5,0.5-0.7,0.8-0.7c0.4,0,0.6,0.2,0.6,0.5c0,0.2,0,0.5-0.1,0.9l-1.4,6 l-7.6,0c-2.1,0-4.1-0.1-6-0.1c-1.9-0.1-3.3-0.1-4.4-0.1c-1.2,0-2.9,0.1-5.3,0.2c-0.3,0-0.5,0-0.7,0c-0.7,0-1-0.2-1-0.7 c0-0.4,0.3-0.6,0.8-0.6c1.4,0,2.3-0.4,2.7-1.1c0.5-0.7,0.7-2.2,0.7-4.5l0.1-10.8c0-3.7,0-6-0.1-6.8s-0.3-1.4-0.7-1.7 s-1.1-0.5-2.2-0.7c-0.4-0.1-0.7-0.3-0.7-0.6c0-0.4,0.3-0.6,0.8-0.6l5.1,0.2L484.3,139.6z"></path> <path class="st0" d="M522.2,141.5l0.6,6.1c0,0.3,0,0.5,0,0.7c0,0.4-0.2,0.7-0.6,0.7c-0.3,0-0.6-0.2-0.9-0.7 c-1.1-2.3-2.5-4.1-4.3-5.5c-1.8-1.4-3.8-2.1-6.2-2.1c-3,0-5.3,1.3-7,3.8c-1.7,2.5-2.5,5.5-2.5,8.9c0,3.8,0.9,6.9,2.8,9.3 s4.1,3.6,6.6,3.6c1.1,0,2.2-0.2,3.3-0.7c1.1-0.5,1.8-1,2.1-1.6c0.3-0.6,0.5-1.4,0.5-2.4c0-2.3-0.1-3.8-0.3-4.4 c-0.2-0.6-0.5-1-0.9-1.2s-1.3-0.4-2.7-0.6c-0.5-0.1-0.8-0.3-0.8-0.6c0-0.4,0.2-0.6,0.7-0.6h3.2l9.7-0.2c0.4,0,0.7,0.2,0.7,0.5 c0,0.2-0.1,0.4-0.3,0.4c-0.2,0.1-0.8,0.2-1.8,0.4c-0.8,0.2-1.2,0.4-1.4,0.8s-0.4,2.4-0.5,6.3c0,0.9-0.1,1.4-0.1,1.5 c0,0.1-0.9,0.6-2.5,1.4c-1.6,0.8-3.3,1.5-5,1.9c-1.7,0.4-3.4,0.6-5.2,0.6c-2.9,0-5.5-0.6-7.7-1.7c-2.3-1.1-4.1-2.7-5.5-4.8 c-1.4-2.1-2.1-4.5-2.1-7.4c0-4,1.4-7.5,4.2-10.4c2.8-2.9,6.6-4.4,11.4-4.4c1.7,0,3.2,0.2,4.6,0.6c1.4,0.4,2.9,1,4.7,1.8 c0.3,0.2,0.7,0.2,0.9,0.2c0.3,0,0.5-0.2,0.7-0.6c0.2-0.5,0.5-0.8,0.8-0.8C521.9,140.2,522.1,140.6,522.2,141.5z"></path> <path class="st0" d="M547.9,153c1.9,0.3,3.4,0.8,4.7,1.7c1.2,0.9,2.1,2.6,2.8,5.2c0.6,2.4,1.2,4.1,1.9,4.8 c0.7,0.8,1.6,1.2,2.8,1.3c0.7,0,1,0.3,1,0.6c0,0.4-0.5,0.6-1.6,0.6l-8.1-0.2c-0.8-0.8-1.4-2.3-1.7-4.5c-0.4-2.8-0.8-4.7-1.2-5.8 c-0.4-1.1-1-1.9-1.9-2.4c-0.8-0.5-1.8-0.7-2.9-0.7c-0.3,0-0.8,0-1.3,0.1c0,4.9,0,8,0.1,9.1c0,1.1,0.3,2,0.7,2.5 c0.4,0.5,1.2,0.8,2.4,0.8c0.6,0,0.9,0.3,0.9,0.6s-0.3,0.6-0.8,0.6L539,167c-0.9,0-2,0-3.3,0.1c-1.2,0.1-2,0.1-2.4,0.1 c-0.6,0-0.9-0.2-0.9-0.6c0-0.4,0.3-0.6,0.8-0.6c0.8,0,1.5-0.2,2.2-0.6c0.7-0.4,1-2,1-5l0-3.9l0-7.5c0-3.9-0.2-6.3-0.5-7.1 c-0.3-0.9-1.3-1.3-2.8-1.3c-0.6,0-0.9-0.2-0.9-0.6c0-0.4,0.4-0.6,1.2-0.6c3.9,0,7.3-0.1,10-0.3c1.2-0.1,2.3-0.1,3.3-0.1 c3.2,0,5.7,0.6,7.5,1.9s2.7,2.9,2.7,5c0,1.4-0.4,2.6-1.3,3.7c-0.9,1.1-1.9,1.9-3.2,2.4S549.6,152.8,547.9,153z M542.2,152.1 c0.4,0,0.6,0,0.8,0c1.2,0,2.4-0.2,3.7-0.7s2.1-1.2,2.6-2.2c0.5-1,0.8-2.1,0.8-3.2c0-1.7-0.5-3.1-1.6-4.1c-1-1-2.4-1.5-4-1.5 c-0.7,0-1.5,0.1-2.3,0.4V152.1z"></path> <path class="st0" d="M567.7,139.3c0.5,0,1.5,0,3,0.1c1.2,0.1,2.1,0.1,2.8,0.1l6.4-0.2c0.5,0,0.8,0.2,0.8,0.6 c0,0.3-0.2,0.5-0.7,0.6c-1.1,0.1-1.8,0.3-2.2,0.6c-0.4,0.3-0.7,1-0.9,2.1c-0.2,1.1-0.3,3.6-0.3,7.4c0,4.4,0.1,7.8,0.2,10.2 c0.1,2.4,0.4,3.9,0.8,4.5c0.4,0.6,1.1,0.8,2.1,0.8c0.7,0,1,0.2,1,0.5c0,0.5-0.4,0.7-1.1,0.7c-0.2,0-0.5,0-0.9,0 c-2.6-0.2-4.4-0.3-5.4-0.3c-2.1,0-3.7,0.1-4.7,0.2c-0.5,0.1-0.9,0.1-1.1,0.1c-0.5,0-0.8-0.2-0.8-0.6c0-0.3,0.2-0.5,0.7-0.6 c1.2-0.2,2-0.5,2.4-1s0.7-1.7,0.7-3.7c0.1-1.9,0.1-5,0.1-9.1c0-4.3-0.1-7.2-0.2-8.7c-0.2-1.5-0.4-2.4-0.8-2.7 c-0.4-0.3-1-0.5-2-0.6c-0.5,0-0.8-0.3-0.8-0.7C566.9,139.5,567.2,139.3,567.7,139.3z"></path> <path class="st0" d="M587.8,139.2c7.3,0.2,12.6,0.3,16.1,0.3c2.6,0,5.6-0.1,8.7-0.2c1.1-0.1,2.1-0.1,2.8-0.1c0.3,0,0.7,0,1.4,0 c0.1,0.6,0.2,1.8,0.4,3.5l0.3,3.3c0,0.5-0.2,0.8-0.7,0.8c-0.3,0-0.7-0.3-1-1c-0.5-1.1-1.2-2.1-2-2.9c-0.8-0.8-1.8-1.3-2.9-1.6 s-2.9-0.4-5.4-0.4c-0.2,2.1-0.3,4.8-0.3,8c0,3.3,0.1,6.5,0.2,9.5c0.1,3.1,0.3,4.9,0.5,5.5c0.2,0.6,0.5,1.1,0.9,1.4 c0.4,0.3,1.5,0.5,3.1,0.6c0.5,0,0.8,0.2,0.8,0.6c0,0.4-0.2,0.6-0.7,0.6l-0.6,0l-4.3-0.1c-3.4,0-5.4,0-6.2,0l-2.6,0.1 c-0.2,0-0.6,0-1.3,0c-0.3-0.1-0.5-0.2-0.5-0.5c0-0.4,0.3-0.6,0.8-0.6c1.2,0,2.2-0.3,2.8-0.8c0.6-0.5,1-1.3,1.2-2.5 c0.1-1.1,0.2-3.6,0.2-7.3c0-5.9-0.2-10.8-0.5-14.5c-2.3,0-4,0.1-5,0.3c-1,0.2-2,0.7-3,1.6c-1,0.8-1.7,1.9-2.3,3.3 c-0.2,0.5-0.5,0.8-0.8,0.8c-0.5,0-0.7-0.2-0.7-0.6c0-0.1,0.1-1,0.3-2.8C587.3,141.7,587.5,140.3,587.8,139.2z"></path> <path class="st0" d="M639.6,151.7c3.9-5.1,5.9-8.2,5.9-9.3c0-0.3-0.1-0.7-0.3-1s-0.8-0.7-1.9-0.9c-0.4-0.1-0.6-0.3-0.6-0.6 c0-0.4,0.3-0.7,0.8-0.7c0.1,0,0.3,0,0.6,0c1.8,0.2,3.2,0.2,4.1,0.2c1,0,2.2-0.1,3.6-0.2c0.3,0,0.5,0,0.7,0c0.4,0,0.6,0.2,0.6,0.6 c0,0.4-0.2,0.5-0.6,0.6c-0.9,0.1-1.8,0.4-2.6,0.9s-1.7,1.5-2.9,3s-2.4,3.2-3.8,5.2c-1.4,2-2.1,3.2-2.3,3.7c-0.1,0.4-0.2,2-0.2,4.6 c0,3.9,0.2,6.3,0.5,7.1c0.4,0.8,1.2,1.2,2.7,1.2c0.5,0,0.8,0.2,0.8,0.6c0,0.4-0.3,0.6-0.8,0.6c-0.4,0-1.6-0.1-3.5-0.2 c-1.1-0.1-1.8-0.1-2.3-0.1c-1.5,0-3.3,0.1-5.2,0.3c-0.4,0-0.7,0-0.9,0c-0.5,0-0.8-0.2-0.8-0.6c0-0.3,0.2-0.5,0.6-0.6 c1.4-0.2,2.2-0.6,2.6-1.4s0.5-2.4,0.5-4.9c0-2.3-0.1-3.8-0.4-4.6s-1-2.2-2.3-4.2c-1.3-2.1-2.5-4-3.8-5.9c-1.3-1.9-2.2-3.1-2.9-3.6 c-0.7-0.5-1.4-0.9-2.2-1c-0.4-0.1-0.6-0.3-0.6-0.6c0-0.4,0.2-0.7,0.7-0.7c0.2,0,0.6,0,1,0.1c2.2,0.2,3.8,0.2,4.8,0.2 c1.6,0,3.4-0.1,5.4-0.2c0.4,0,0.7,0,1,0c0.5,0,0.7,0.2,0.7,0.5c0,0.3-0.3,0.6-0.8,0.6c-1.4,0.1-2.2,0.7-2.2,1.5 C633.4,142.8,635.5,146.1,639.6,151.7z"></path> </g> <g> <path class="st0" d="M755.1,141.3c0.3-0.4,0.6-0.8,0.9-1.2c0.4-0.5,0.7-0.8,0.9-0.8c0.3,0,0.5,0.1,0.5,0.2 c0.1,0.1,0.2,0.6,0.2,1.3l0.4,6.5l0,0.8c0,0.6-0.2,0.8-0.7,0.8c-0.3,0-0.5-0.2-0.7-0.7c-0.6-1.5-1.6-3.1-3.1-4.9 c-1.5-1.8-3.4-2.7-5.6-2.7c-1.7,0-3.1,0.5-4.2,1.5c-1.1,1-2,2.3-2.7,4c-0.6,1.7-1,3.7-1,6.1c0,4,0.9,7.3,2.7,9.6 c1.8,2.4,4,3.6,6.6,3.6c2.9,0,5.5-1.7,7.9-5.2c0.3-0.4,0.6-0.6,0.8-0.6c0.4,0,0.7,0.2,0.7,0.7c0,0.9-1.1,2.4-3.3,4.4 c-2.2,2-5,3-8.3,3c-4.4,0-7.9-1.4-10.4-4.1c-2.5-2.7-3.8-6-3.8-10c0-3.9,1.3-7.4,3.9-10.3c2.6-2.9,5.8-4.4,9.7-4.4 C749.5,138.9,752.3,139.7,755.1,141.3z"></path> <path class="st0" d="M781.1,139c2.8,0,5.3,0.6,7.4,1.7s3.8,2.8,5.1,4.9c1.3,2.1,1.9,4.5,1.9,7c0,3.9-1.5,7.4-4.4,10.4 s-6.5,4.5-10.9,4.5c-3.9,0-7.3-1.3-10.1-3.8c-2.8-2.5-4.2-5.9-4.2-10.2c0-4,1.4-7.5,4.3-10.4C773.2,140.4,776.8,139,781.1,139z M788.4,153.3c0-4.2-0.7-7.4-2.2-9.6c-1.4-2.1-3.3-3.2-5.5-3.2c-2.2,0-4,1.1-5.5,3.2c-1.4,2.1-2.2,5.3-2.2,9.6 c0,4.1,0.7,7.2,2.1,9.4c1.4,2.2,3.2,3.4,5.5,3.4c2.1,0,3.8-1,5.4-3C787.7,161,788.4,157.7,788.4,153.3z"></path> <path class="st0" d="M812.6,139.5c0.4,0.9,1,2.2,2,4.1c1,1.9,2,3.8,2.9,5.7c1,1.9,2,4,3.2,6.1c1,1.7,1.5,2.7,1.6,3 c3.5-7.8,6.2-14.2,8-18.9c3.4,0,6.5-0.1,9.3-0.3c0.3,0,0.5,0,0.6,0c0.6,0,0.9,0.2,0.9,0.7c0,0.4-0.2,0.6-0.7,0.6 c-1.6,0-2.6,0.5-3.1,1.6c-0.5,1.1-0.7,3.7-0.7,7.9l0,10.3c0,2.1,0.3,3.6,0.8,4.4c0.6,0.8,1.5,1.3,2.7,1.3c0.6,0,0.9,0.2,0.9,0.6 c0,0.2-0.1,0.4-0.4,0.5l-5.9,0c-1.8,0-4.3,0.1-7.4,0.2c-0.3-0.2-0.4-0.4-0.4-0.6c0-0.3,0.4-0.5,1.1-0.7c0.7-0.1,1.3-0.3,1.6-0.5 c0.3-0.2,0.6-0.7,0.7-1.3c0.2-0.6,0.3-1.6,0.3-2.8l0.1-9.4c0-4.8,0-7.6,0-8.3c-3.8,8.8-6.2,14.5-7.1,16.9l-2.1,5.7 c-0.2,0.6-0.5,0.9-0.7,0.9c-0.3,0-0.6-0.4-0.9-1.1c-1-2.2-4.7-9.3-10.9-21.3c-0.1,3.5-0.1,8.2-0.1,14c0,3.1,0.2,5.1,0.5,5.9 c0.3,0.8,1.3,1.3,2.9,1.4c0.5,0.1,0.8,0.3,0.8,0.6c0,0.4-0.2,0.5-0.7,0.5c-0.2,0-0.3,0-0.5,0c-1.7-0.1-2.9-0.2-3.6-0.2 c-2,0-3.5,0.1-4.5,0.2c-0.2,0-0.3,0-0.4,0c-0.5,0-0.7-0.2-0.7-0.6c0-0.2,0.1-0.3,0.2-0.4s0.4-0.2,1-0.3c1.3-0.3,2.2-0.7,2.6-1.4 c0.4-0.7,0.6-1.9,0.6-3.5l0.1-12c0-2.7-0.1-4.5-0.2-5.4s-0.5-1.6-1-2c-0.5-0.5-1.4-0.8-2.7-1.1c-0.5-0.1-0.7-0.3-0.7-0.7 c0-0.4,0.3-0.6,0.8-0.6c0.1,0,0.3,0,0.5,0C805.2,139.4,808.1,139.5,812.6,139.5z"></path> <path class="st0" d="M856.9,154.1l0,8c0,1.7,0.2,2.8,0.7,3.3c0.5,0.5,1.2,0.8,2.2,0.8c0.6,0,1,0.1,1.2,0.2 c0.2,0.1,0.3,0.3,0.3,0.5c0,0.4-0.4,0.5-1.2,0.5c-0.4,0-1.2,0-2.5-0.1c-1.8-0.1-3-0.1-3.8-0.1c-0.8,0-1.9,0-3.2,0.1 c-1.1,0.1-2,0.1-2.5,0.1c-0.4,0-0.7-0.2-0.7-0.6c0-0.3,0.4-0.5,1.2-0.6c0.8-0.1,1.3-0.3,1.6-0.6c0.3-0.3,0.6-0.8,0.7-1.5 c0.1-0.7,0.2-2.6,0.2-5.8c0-3.1,0-5.9,0-8.2l0-6.6c0-0.9-0.2-1.6-0.7-2.1c-0.4-0.5-1.2-0.8-2.3-0.8c-0.5,0-0.7-0.2-0.7-0.6 c0-0.5,0.4-0.7,1.3-0.7l0.5,0c0.8,0,1.7,0.1,2.7,0.1l8.6-0.1c4.3,0,7.4,0.6,9.1,1.9c1.7,1.3,2.6,3.1,2.6,5.4s-0.9,4.2-2.8,5.6 c-1.8,1.4-4.8,2.1-9,2.1C859.5,154.2,858.3,154.1,856.9,154.1z M856.9,152.6c0.8,0.1,1.4,0.1,1.8,0.1c2.2,0,3.9-0.7,5-2 c1.1-1.3,1.7-2.9,1.7-4.8c0-1.8-0.5-3.1-1.5-4c-1-0.9-2.3-1.3-3.7-1.3c-0.8,0-1.8,0.1-3.2,0.4V152.6z"></path> <path class="st0" d="M887.8,138.6h1.4c1.8,4,4.5,10.3,7.8,18.9c1.6,3.9,2.6,6.3,3.2,7.2c0.6,0.8,1.5,1.3,2.8,1.5 c0.4,0.1,0.6,0.2,0.6,0.5c0,0.4-0.3,0.7-0.8,0.7c-0.3,0-1.1,0-2.3-0.1c-1.5-0.1-2.7-0.2-3.7-0.2c-1,0-2.2,0.1-3.8,0.2 c-1.2,0.1-1.9,0.1-2.3,0.1c-0.6,0-1-0.2-1-0.6c0-0.3,0.2-0.5,0.7-0.5c1.7-0.2,2.6-0.8,2.6-2c0-0.6-0.3-1.6-0.8-3.1 c-0.5-1.5-1-2.9-1.6-4.1c-0.9,0-1.6,0-2.1,0c-2.8,0-5,0-6.6,0c-1.2,3.3-1.8,5.5-1.8,6.6c0,0.8,0.3,1.4,0.9,1.8s1.3,0.7,2,0.7 c0.5,0.1,0.8,0.3,0.8,0.7c0,0.4-0.3,0.6-0.9,0.6c-0.2,0-0.8,0-1.8-0.1c-1.2-0.1-2.1-0.1-2.7-0.1c-1.1,0-2.2,0.1-3.1,0.2 c-0.3,0-0.5,0.1-0.6,0.1c-0.5,0-0.8-0.2-0.8-0.6c0-0.3,0.2-0.5,0.5-0.6c0.8-0.2,1.5-0.5,2-0.9s1-1,1.5-2c0.6-1,1.2-2.6,2-4.8 C881.8,153.6,884.4,146.9,887.8,138.6z M886.3,145.9l-3.6,9.4l7.4-0.1c-0.4-1.1-1-2.6-1.8-4.5C887.4,148.6,886.8,147,886.3,145.9z "></path> <path class="st0" d="M917,139.3c6.7,7.6,12.3,13.7,16.8,18.3c0-1,0-1.6,0-1.8l0-8.3c0-2-0.1-3.4-0.3-4.2c-0.2-0.8-0.7-1.5-1.4-2 s-1.6-0.8-2.5-0.9c-0.5-0.1-0.8-0.3-0.8-0.7c0-0.4,0.2-0.6,0.7-0.6c0.3,0,0.6,0,1,0.1c0.8,0.1,2,0.1,3.5,0.1 c1.9,0,3.4-0.1,4.4-0.2c0.4,0,0.8-0.1,1.1-0.1c0.5,0,0.8,0.2,0.8,0.6c0,0.4-0.4,0.6-1.1,0.7c-0.9,0.1-1.7,0.5-2.5,1.1 c-0.8,0.7-1.1,2-1.1,3.9l0.1,11.9l-0.1,8.9c0,0.8-0.2,1.2-0.7,1.2c-0.1,0-0.3,0-0.4-0.1s-1.1-1.1-2.9-2.9s-4.4-4.7-7.8-8.6 c-3.5-3.9-5.9-6.7-7.3-8.4c0,0.4,0,3.9,0,10.6c0,2.1,0.1,3.7,0.3,4.8s0.7,2,1.6,2.5s1.7,0.8,2.5,0.8c0.5,0,0.7,0.2,0.7,0.5 c0,0.4-0.3,0.6-0.8,0.6c-0.3,0-0.7,0-1.2-0.1c-0.8-0.1-1.9-0.2-3.2-0.2c-2.1,0-3.6,0.1-4.5,0.2c-0.6,0.1-1,0.1-1.3,0.1 c-0.5,0-0.8-0.2-0.8-0.7c0-0.3,0.4-0.5,1.3-0.6c1.6-0.1,2.6-0.7,3-1.6s0.6-2.3,0.6-3.9c0-7.2,0-11.6-0.1-13.2 c-0.1-1.6-0.6-3.1-1.5-4.4c-0.9-1.3-2.1-2.1-3.4-2.3c-0.5-0.1-0.8-0.3-0.8-0.7c0-0.5,0.3-0.7,0.9-0.7c0.1,0,0.3,0,0.6,0 c0.3,0,0.9,0,1.7,0C913.7,139.3,915.4,139.3,917,139.3z"></path> <path class="st0" d="M962.4,151.7c3.9-5.1,5.9-8.2,5.9-9.3c0-0.3-0.1-0.7-0.3-1s-0.8-0.7-1.9-0.9c-0.4-0.1-0.6-0.3-0.6-0.6 c0-0.4,0.3-0.7,0.8-0.7c0.1,0,0.3,0,0.6,0c1.8,0.2,3.2,0.2,4.1,0.2c1,0,2.2-0.1,3.6-0.2c0.3,0,0.5,0,0.7,0c0.4,0,0.6,0.2,0.6,0.6 c0,0.4-0.2,0.5-0.6,0.6c-0.9,0.1-1.8,0.4-2.6,0.9s-1.7,1.5-2.9,3s-2.4,3.2-3.8,5.2c-1.4,2-2.1,3.2-2.3,3.7c-0.1,0.4-0.2,2-0.2,4.6 c0,3.9,0.2,6.3,0.5,7.1c0.4,0.8,1.2,1.2,2.7,1.2c0.5,0,0.8,0.2,0.8,0.6c0,0.4-0.3,0.6-0.8,0.6c-0.4,0-1.6-0.1-3.5-0.2 c-1.1-0.1-1.8-0.1-2.3-0.1c-1.5,0-3.3,0.1-5.2,0.3c-0.4,0-0.7,0-0.9,0c-0.5,0-0.8-0.2-0.8-0.6c0-0.3,0.2-0.5,0.6-0.6 c1.4-0.2,2.2-0.6,2.6-1.4s0.5-2.4,0.5-4.9c0-2.3-0.1-3.8-0.4-4.6s-1-2.2-2.3-4.2c-1.3-2.1-2.5-4-3.8-5.9c-1.3-1.9-2.2-3.1-2.9-3.6 c-0.7-0.5-1.4-0.9-2.2-1c-0.4-0.1-0.6-0.3-0.6-0.6c0-0.4,0.2-0.7,0.7-0.7c0.2,0,0.6,0,1,0.1c2.2,0.2,3.8,0.2,4.8,0.2 c1.6,0,3.4-0.1,5.4-0.2c0.4,0,0.7,0,1,0c0.5,0,0.7,0.2,0.7,0.5c0,0.3-0.3,0.6-0.8,0.6c-1.4,0.1-2.2,0.7-2.2,1.5 C956.2,142.8,958.3,146.1,962.4,151.7z"></path> </g> <g> <path class="st0" d="M722.5,189c-0.7,0-1.5,0.1-2.2,0.1c-7.2-0.1-14.4-0.4-21.7-0.4c-1.7,0-2.6-0.4-2.6-2.4 c0.1-23.6,0-47.2,0.1-70.8c0-0.3,0.1-0.6,0.3-1.4c8.7,0,17.4,0,26.4,0c-0.6,0.3-1,0.7-1.6,0.9c-11.4,2.8-14.4,5.6-14.9,17.4 c-0.5,13.2-0.4,26.4,0.1,39.7c0.3,9,3.9,12.7,12.6,15.3c1.2,0.4,2.4,0.7,3.6,1C722.6,188.5,722.5,188.8,722.5,189z"></path> <path class="st0" d="M664.9,188.4c1.6-0.4,3.2-0.9,4.8-1.3c6.6-1.9,10.4-6.4,10.9-13.2c0.5-7.8,0.6-15.6,0.7-23.5 c0.1-6.2,0.1-12.4,0-18.6c-0.2-9.8-4.2-14.6-13.7-16.6c-1-0.2-1.9-0.5-2.7-1.2c8.7,0,17.4,0,26.3,0c0.1,1.4,0.2,2.4,0.2,3.4 c0,22.6,0,45.2,0.1,67.8c0,2.7-0.6,3.7-3.5,3.6c-7.6-0.2-15.2-0.1-22.9-0.1C664.9,188.5,664.9,188.5,664.9,188.4z"></path> </g> </g> <g class="st1"> <g class="st2"> <g> <path d="M449.9-39.2h13.3v3.4h-9.8v6.1h8.5v3.4h-8.5v9h-3.5V-39.2z"></path> <path d="M464.3-17.4l9.7-22.7h0.2l9.7,22.7h-4l-6.8-17.3l2.5-1.7l-7.8,18.9H464.3z M470.5-25.5h7.4l1.2,2.9h-9.7L470.5-25.5z"></path> <path d="M486.6-17.4V-40h0l11.8,16.6l-1.5-0.3L508.6-40h0.1v22.6h-3.5v-14.7l0.2,1.8l-7.9,11.2h-0.1l-8-11.2l0.6-1.6v14.6H486.6z "></path> <path d="M513.6-39.2h3.5v21.8h-3.5V-39.2z"></path> <path d="M522-39.2h3.5v18.5h10.8v3.4H522V-39.2z"></path> <path d="M545.6-24.5l-8.1-14.7h4.3l6.1,11.8l-1.1,0.1l6.1-11.8h4.3l-8.2,14.7v7.1h-3.5V-24.5z"></path> <path d="M568.5-39.2h13.3v3.4H572v6.1h8.5v3.4H572v9h-3.5V-39.2z"></path> <path d="M585.2-39.2h3.5v21.8h-3.5V-39.2z"></path> <path d="M599.9-39.2c1.2,0,2.3,0.2,3.3,0.5c1,0.3,1.8,0.8,2.6,1.4c0.7,0.6,1.3,1.3,1.6,2.2s0.6,1.9,0.6,3c0,0.9-0.1,1.7-0.4,2.6 c-0.3,0.9-0.7,1.6-1.3,2.3c-0.6,0.7-1.4,1.3-2.3,1.7c-1,0.4-2.1,0.6-3.5,0.6h-3.2v7.6h-3.5v-21.8H599.9z M600.3-28.3 c0.8,0,1.4-0.1,1.9-0.4c0.5-0.2,0.9-0.5,1.2-0.9c0.3-0.4,0.5-0.8,0.6-1.2s0.2-0.8,0.2-1.2c0-0.4-0.1-0.8-0.2-1.2 s-0.3-0.8-0.6-1.2c-0.3-0.4-0.7-0.7-1.2-1c-0.5-0.3-1.1-0.4-1.9-0.4h-3.2v7.5H600.3z M604.1-26.2l5.6,8.9h-4.1l-5.7-8.8 L604.1-26.2z"></path> <path d="M624.2-34.7c-0.8-0.4-1.6-0.8-2.5-1.1c-0.9-0.3-1.7-0.4-2.5-0.4c-1.1,0-1.9,0.2-2.6,0.7c-0.6,0.5-0.9,1.1-0.9,2 c0,0.6,0.2,1.1,0.6,1.6c0.4,0.5,1,0.8,1.7,1.2c0.7,0.3,1.4,0.6,2.2,0.9c0.7,0.2,1.3,0.5,2,0.9c0.6,0.3,1.2,0.7,1.8,1.2 c0.5,0.5,0.9,1.1,1.3,1.8c0.3,0.7,0.5,1.6,0.5,2.6c0,1.2-0.3,2.2-0.9,3.1c-0.6,0.9-1.4,1.7-2.5,2.3c-1.1,0.6-2.4,0.9-3.9,0.9 c-0.9,0-1.8-0.1-2.7-0.3s-1.7-0.5-2.5-0.8c-0.8-0.3-1.5-0.8-2.2-1.2l1.6-2.7c0.5,0.4,1,0.7,1.7,1c0.6,0.3,1.3,0.5,1.9,0.7 c0.6,0.2,1.3,0.3,1.9,0.3s1.2-0.1,1.8-0.3c0.6-0.2,1.1-0.5,1.5-1c0.4-0.5,0.6-1.1,0.6-1.9c0-0.6-0.2-1.1-0.5-1.6 c-0.4-0.4-0.8-0.8-1.4-1.1c-0.6-0.3-1.2-0.6-1.9-0.9c-0.7-0.3-1.4-0.5-2.1-0.9c-0.7-0.3-1.4-0.7-2-1.2c-0.6-0.5-1.1-1-1.5-1.7 c-0.4-0.7-0.5-1.5-0.5-2.5c0-1.2,0.3-2.2,0.8-3.1c0.5-0.9,1.3-1.6,2.3-2.1c1-0.5,2.2-0.8,3.4-0.8c1.5,0,2.9,0.2,3.9,0.6 s2.1,0.8,2.9,1.4L624.2-34.7z"></path> <path d="M627.6-39.2h14.6v3.4h-5.6v18.5h-3.5v-18.5h-5.5V-39.2z"></path> <path d="M654.2-39.2h3.5v18.5h10.8v3.4h-14.3V-39.2z"></path> <path d="M672-39.2h3.5v21.8H672V-39.2z"></path> <path d="M680.5-39.2h13.3v3.4H684v6.1h8.5v3.4H684v9h-3.5V-39.2z"></path> <path d="M697.2-39.2h14.5v3.4h-11v5.8h9.8v3.4h-9.8v5.9h11.4v3.4h-14.9V-39.2z"></path> <path d="M727.6-25.2c0,0.9,0.2,1.6,0.7,2.4s1,1.3,1.8,1.7c0.7,0.4,1.6,0.7,2.5,0.7c1,0,1.8-0.2,2.6-0.7s1.4-1,1.8-1.7 s0.7-1.5,0.7-2.4v-14h3.4v14c0,1.6-0.4,3-1.1,4.2c-0.8,1.2-1.8,2.1-3.1,2.8c-1.3,0.7-2.7,1-4.3,1c-1.6,0-3-0.3-4.3-1 c-1.3-0.7-2.3-1.6-3.1-2.8c-0.8-1.2-1.1-2.6-1.1-4.2v-14h3.5V-25.2z"></path> <path d="M745.4-21.1c0.5-0.4,0.9-0.6,1.5-0.6c0.5,0,1,0.2,1.4,0.6c0.5,0.4,0.7,0.9,0.7,1.6c0,0.7-0.2,1.2-0.7,1.6 s-0.9,0.6-1.4,0.6c-0.5,0-1-0.2-1.5-0.6s-0.7-0.9-0.7-1.6C744.7-20.1,744.9-20.7,745.4-21.1z"></path> <path d="M764.5-34.7c-0.8-0.4-1.6-0.8-2.5-1.1c-0.9-0.3-1.7-0.4-2.5-0.4c-1.1,0-1.9,0.2-2.5,0.7c-0.6,0.5-0.9,1.1-0.9,2 c0,0.6,0.2,1.1,0.6,1.6c0.4,0.5,1,0.8,1.7,1.2c0.7,0.3,1.4,0.6,2.2,0.9c0.7,0.2,1.3,0.5,1.9,0.9c0.6,0.3,1.2,0.7,1.8,1.2 c0.5,0.5,1,1.1,1.3,1.8c0.3,0.7,0.5,1.6,0.5,2.6c0,1.2-0.3,2.2-0.9,3.1c-0.6,0.9-1.4,1.7-2.5,2.3c-1.1,0.6-2.4,0.9-3.9,0.9 c-0.9,0-1.8-0.1-2.7-0.3c-0.9-0.2-1.7-0.5-2.5-0.8c-0.8-0.3-1.5-0.8-2.2-1.2l1.6-2.7c0.5,0.4,1,0.7,1.6,1 c0.6,0.3,1.3,0.5,1.9,0.7c0.6,0.2,1.3,0.3,1.9,0.3s1.2-0.1,1.8-0.3c0.6-0.2,1.1-0.5,1.5-1c0.4-0.5,0.6-1.1,0.6-1.9 c0-0.6-0.2-1.1-0.5-1.6c-0.4-0.4-0.8-0.8-1.4-1.1c-0.6-0.3-1.2-0.6-1.9-0.9c-0.7-0.3-1.3-0.5-2.1-0.9c-0.7-0.3-1.4-0.7-2-1.2 c-0.6-0.5-1.1-1-1.5-1.7c-0.4-0.7-0.5-1.5-0.5-2.5c0-1.2,0.3-2.2,0.8-3.1c0.5-0.9,1.3-1.6,2.3-2.1c1-0.5,2.2-0.8,3.4-0.8 c1.5,0,2.9,0.2,3.9,0.6s2.1,0.8,2.9,1.4L764.5-34.7z"></path> <path d="M769.2-21.1c0.5-0.4,0.9-0.6,1.5-0.6c0.5,0,1,0.2,1.4,0.6c0.5,0.4,0.7,0.9,0.7,1.6c0,0.7-0.2,1.2-0.7,1.6 s-0.9,0.6-1.4,0.6c-0.5,0-1-0.2-1.5-0.6s-0.7-0.9-0.7-1.6C768.5-20.1,768.8-20.7,769.2-21.1z"></path> <path d="M774.5-17.4l9.7-22.7h0.2l9.7,22.7h-4l-6.8-17.3l2.5-1.7L778-17.4H774.5z M780.7-25.5h7.4l1.2,2.9h-9.7L780.7-25.5z"></path> <path d="M796.5-21.1c0.5-0.4,0.9-0.6,1.5-0.6c0.5,0,1,0.2,1.4,0.6c0.5,0.4,0.7,0.9,0.7,1.6c0,0.7-0.2,1.2-0.7,1.6 s-0.9,0.6-1.4,0.6c-0.5,0-1-0.2-1.5-0.6s-0.7-0.9-0.7-1.6C795.9-20.1,796.1-20.7,796.5-21.1z"></path> </g> </g> <text transform="matrix(1 0 0 1 529.9137 4.5117)" class="st2 st3 st4 st5">An integrity</text> <text transform="matrix(1 0 0 1 652.9137 4.5117)" class="st2 st3 st4 st5">Company</text> <g class="st2"> <path d="M650.5,11.7c-0.2,0-0.4,0-0.6,0c-2,0-4-0.1-6-0.1c-0.5,0-0.7-0.1-0.7-0.7c0-6.6,0-13.2,0-19.8c0-0.1,0-0.2,0.1-0.4 c2.4,0,4.9,0,7.4,0c-0.2,0.1-0.3,0.2-0.4,0.2c-3.2,0.8-4,1.6-4.2,4.9c-0.2,3.7-0.1,7.4,0,11.1c0.1,2.5,1.1,3.6,3.5,4.3 c0.3,0.1,0.7,0.2,1,0.3C650.5,11.5,650.5,11.6,650.5,11.7z"></path> <path d="M634.4,11.5c0.4-0.1,0.9-0.3,1.3-0.4c1.9-0.5,2.9-1.8,3-3.7c0.1-2.2,0.2-4.4,0.2-6.6c0-1.7,0-3.5,0-5.2 c-0.1-2.7-1.2-4.1-3.8-4.6c-0.3-0.1-0.5-0.1-0.8-0.3c2.4,0,4.9,0,7.4,0c0,0.4,0.1,0.7,0.1,0.9c0,6.3,0,12.6,0,18.9 c0,0.8-0.2,1-1,1C638.7,11.5,636.5,11.6,634.4,11.5C634.4,11.5,634.4,11.5,634.4,11.5z"></path> </g> </g> </svg> 